P1
# CREATOR: GIMP PNM Filter Version 1.1
11 8
0010000001000010000100001111111100110111011111111111111101111111011010
000010100011011000